<svg version="1.1" xmlns="http://www.w3.org/2000/svg" viewBox="0 0 754.5523898767083 501.2368434614016" width="754.5523898767083" height="501.2368434614016">
  <!-- svg-source:excalidraw -->
  
  <defs>
    <style class="style-fonts">
      @font-face {
        font-family: "Virgil";
        src: url("https://excalidraw.com/Virgil.woff2");
      }
      @font-face {
        font-family: "Cascadia";
        src: url("https://excalidraw.com/Cascadia.woff2");
      }
      @font-face {
        font-family: "Assistant";
        src: url("https://excalidraw.com/Assistant-Regular.woff2");
      }
    </style>
    
  </defs>
  <rect x="0" y="0" width="754.5523898767083" height="501.2368434614016" fill="#ffffff"></rect><g stroke-linecap="round" transform="translate(37.94180105328826 127.81702159210931) rotate(0 353.30529441171 118.02554221826034)"><path d="M32 0 C240.41 -0.87, 448.4 -0.35, 674.61 0 M32 0 C181.83 0.35, 330.83 0.47, 674.61 0 M674.61 0 C694.25 0.65, 705.57 9.71, 706.61 32 M674.61 0 C697.79 -2.22, 705.14 9.96, 706.61 32 M706.61 32 C707.01 83.03, 707.27 129.53, 706.61 204.05 M706.61 32 C706.92 77.65, 707.03 122.94, 706.61 204.05 M706.61 204.05 C707.93 224.38, 697.53 237.5, 674.61 236.05 M706.61 204.05 C708.17 224.85, 695.75 234.24, 674.61 236.05 M674.61 236.05 C443.6 235.93, 212.69 235.74, 32 236.05 M674.61 236.05 C426.99 235.07, 179.4 234.74, 32 236.05 M32 236.05 C10.54 235.75, 1.26 223.96, 0 204.05 M32 236.05 C11.21 237.6, 0.92 225.84, 0 204.05 M0 204.05 C1.5 150.43, 3.21 95.87, 0 32 M0 204.05 C-0.32 164.32, -1.18 126.33, 0 32 M0 32 C0.9 11.21, 10.94 -1.1, 32 0 M0 32 C1.23 12.07, 12.92 0.91, 32 0" stroke="#1e1e1e" stroke-width="2" fill="none"></path></g><g stroke-linecap="round" transform="translate(255.4186363095862 85.5303955078125) rotate(0 7.8114013671875 180.66836957041767)"><path d="M0 0 C5.53 -0.25, 11.1 0.66, 15.62 0 M0 0 C5.88 0.19, 12.34 -0.04, 15.62 0 M15.62 0 C15.83 127.55, 15.88 253.65, 15.62 361.34 M15.62 0 C15.2 91.2, 15.34 181.99, 15.62 361.34 M15.62 361.34 C10.11 361.33, 3.84 361.28, 0 361.34 M15.62 361.34 C11.08 361.09, 6.54 360.98, 0 361.34 M0 361.34 C0.03 226.73, -0.26 92.93, 0 0 M0 361.34 C-1.21 264.31, -1.04 166.97, 0 0" stroke="#000000" stroke-width="1" fill="none"></path></g><g stroke-linecap="round"><g transform="translate(262.2377424140318 56.2076416015625) rotate(0 -0.9521484375 14.551055908203125)"><path d="M-0.12 -0.03 C-0.44 4.92, -1.11 24.71, -1.38 29.65" stroke="#000000" stroke-width="1.5" fill="none" stroke-dasharray="8 9"></path></g></g><mask></mask><g stroke-linecap="round"><g transform="translate(261.2966628077463 444.53585628928636) rotate(0 0.04765924155128687 23.104194651934108)"><path d="M0.52 0.55 C0.58 8.34, 0.37 39.03, 0.21 46.7" stroke="#000000" stroke-width="1.5" fill="none" stroke-dasharray="8 9"></path></g></g><mask></mask><g stroke-linecap="round" transform="translate(197.7730207343443 10) rotate(0 70.220458984375 22.27655029296875)"><path d="M0 0 C57.19 -2.15, 112.1 -1.05, 140.44 0 M0 0 C43.11 -0.84, 87.56 -0.76, 140.44 0 M140.44 0 C139.55 11.55, 140.62 24.1, 140.44 44.55 M140.44 0 C141.26 9.84, 140.7 18.69, 140.44 44.55 M140.44 44.55 C100.74 45.36, 58.24 45.24, 0 44.55 M140.44 44.55 C111.99 46.06, 83.55 45.6, 0 44.55 M0 44.55 C0.99 27.39, 2.08 12.24, 0 0 M0 44.55 C-0.6 27.58, -0.21 8.56, 0 0" stroke="#000000" stroke-width="1" fill="none"></path></g><g transform="translate(232.88350962594586 19.77655029296875) rotate(0 35.10997009277344 12.5)"><text x="35.10997009277344" y="17.52" font-family="Virgil, Segoe UI Emoji" font-size="20px" fill="#1e1e1e" text-anchor="middle" style="white-space: pre;" direction="ltr" dominant-baseline="alphabetic">Thread</text></g><g stroke-linecap="round"><g transform="translate(10.106513389665679 109.22893907407337) rotate(0 119.1569270833345 0.042548454846809136)"><path d="M0.89 -1.19 C40.58 -0.99, 198.92 0.47, 238.3 0.67 M-0.11 0.79 C39.42 0.69, 197.42 -1.22, 237.35 -1.14" stroke="#1e1e1e" stroke-width="2" fill="none"></path></g><g transform="translate(10.106513389665679 109.22893907407337) rotate(0 119.1569270833345 0.042548454846809136)"><path d="M213.91 7.55 C219.24 4.66, 229.5 0.08, 237.35 -1.14 M213.91 7.55 C221.08 5.16, 228.29 1.68, 237.35 -1.14" stroke="#1e1e1e" stroke-width="2" fill="none"></path></g><g transform="translate(10.106513389665679 109.22893907407337) rotate(0 119.1569270833345 0.042548454846809136)"><path d="M213.81 -9.55 C219.09 -7.13, 229.38 -6.39, 237.35 -1.14 M213.81 -9.55 C221.16 -6.92, 228.41 -5.38, 237.35 -1.14" stroke="#1e1e1e" stroke-width="2" fill="none"></path></g></g><mask></mask><g transform="translate(31.6941449706934 59.96905677273321) rotate(0 86.21280041111743 18.37415357801973)"><text x="0" y="12.876606827476234" font-family="Virgil, Segoe UI Emoji" font-size="14.699322862415793px" fill="#1e1e1e" text-anchor="start" style="white-space: pre;" direction="ltr" dominant-baseline="alphabetic">Job: String</text><text x="0" y="31.250760405495974" font-family="Virgil, Segoe UI Emoji" font-size="14.699322862415793px" fill="#1e1e1e" text-anchor="start" style="white-space: pre;" direction="ltr" dominant-baseline="alphabetic">Inputs: Vec&lt;String&gt;</text></g><g stroke-linecap="round"><g transform="translate(280.1250829589685 154.40405650313164) rotate(0 36.17252198763737 11.15923965315153)"><path d="M0.3 -1.02 C12.5 0.46, 73.2 6.16, 73.32 9.87 C73.43 13.59, 13.03 19.31, 0.96 21.28 M-1 1.06 C11.12 3.21, 72.57 7.6, 72.85 11.1 C73.14 14.59, 12.59 20.16, 0.73 22.05" stroke="#1e1e1e" stroke-width="2" fill="none"></path></g><g transform="translate(280.1250829589685 154.40405650313164) rotate(0 36.17252198763737 11.15923965315153)"><path d="M23.01 10.73 C14.53 15.83, 8.35 19.45, 0.73 22.05 M23.01 10.73 C19.1 13.96, 13.79 14.46, 0.73 22.05" stroke="#1e1e1e" stroke-width="2" fill="none"></path></g><g transform="translate(280.1250829589685 154.40405650313164) rotate(0 36.17252198763737 11.15923965315153)"><path d="M25.08 27.7 C15.82 27.57, 9 25.95, 0.73 22.05 M25.08 27.7 C20.59 27.3, 14.84 24.17, 0.73 22.05" stroke="#1e1e1e" stroke-width="2" fill="none"></path></g></g><mask></mask><g transform="translate(55.327556295054706 134.91585920652278) rotate(0 86.21280041111743 9.187076789009893)"><text x="0" y="12.876606827476234" font-family="Virgil, Segoe UI Emoji" font-size="14.699322862415793px" fill="#1e1e1e" text-anchor="start" style="white-space: pre;" direction="ltr" dominant-baseline="alphabetic">For each input:</text></g><g transform="translate(363.8077628959485 156.52621508317725) rotate(0 123.78853603989995 9.187076789009893)"><text x="0" y="12.876606827476234" font-family="Virgil, Segoe UI Emoji" font-size="14.699322862415793px" fill="#1e1e1e" text-anchor="start" style="white-space: pre;" direction="ltr" dominant-baseline="alphabetic">build_command(job, input)</text></g><g stroke-linecap="round" transform="translate(648.260920966266 228.7215289452272) rotate(0 7.8114013671875 24.746557072079327)"><path d="M0 0 C4.17 0.38, 8.76 -0.58, 15.62 0 M0 0 C4.76 -0.22, 9.29 -0.19, 15.62 0 M15.62 0 C16.25 13.59, 15.1 25.71, 15.62 49.49 M15.62 0 C15.6 19.1, 15.95 38.55, 15.62 49.49 M15.62 49.49 C11.31 49.29, 7.91 49.52, 0 49.49 M15.62 49.49 C10.18 49.8, 4.34 49.9, 0 49.49 M0 49.49 C-0.39 36.24, -0.95 24.47, 0 0 M0 49.49 C0.24 37.96, 0.14 26.55, 0 0" stroke="#000000" stroke-width="1" fill="none"></path></g><g stroke-linecap="round"><g transform="translate(657.0647073773616 196.96915165472979) rotate(0 -0.9521484375 14.551055908203125)"><path d="M0.26 0.35 C-0.11 5.2, -1.91 24.39, -2.32 29.14" stroke="#000000" stroke-width="1.5" fill="none" stroke-dasharray="8 9"></path></g></g><mask></mask><g stroke-linecap="round"><g transform="translate(656.7207882173252 277.9295174355532) rotate(0 0.5511474609375 17.82049560546875)"><path d="M-0.42 0.04 C-0.32 5.88, 0.57 29.53, 0.82 35.41" stroke="#000000" stroke-width="1.5" fill="none" stroke-dasharray="8 9"></path></g></g><mask></mask><g stroke-linecap="round" transform="translate(592.5999856976741 150.66783782630478) rotate(0 70.220458984375 22.27655029296875)"><path d="M0 0 C30.64 0.56, 61.67 -0.84, 140.44 0 M0 0 C33.6 1.11, 69.13 -0.04, 140.44 0 M140.44 0 C142.44 13.81, 140.08 28.64, 140.44 44.55 M140.44 0 C139.41 12.11, 139.92 25.39, 140.44 44.55 M140.44 44.55 C97.66 45.93, 54.66 44.44, 0 44.55 M140.44 44.55 C85.59 44.42, 28.24 43.86, 0 44.55 M0 44.55 C0.85 32.13, 0.09 18.89, 0 0 M0 44.55 C-0.87 30.28, -0.24 18.25, 0 0" stroke="#000000" stroke-width="1" fill="none"></path></g><g transform="translate(625.0204874066585 160.44438811927353) rotate(0 37.799957275390625 12.5)"><text x="37.799957275390625" y="17.52" font-family="Virgil, Segoe UI Emoji" font-size="20px" fill="#1e1e1e" text-anchor="middle" style="white-space: pre;" direction="ltr" dominant-baseline="alphabetic">Process</text></g><g stroke-linecap="round"><g transform="translate(284.7359190081073 225.16657470634652) rotate(0 180.15606147901036 1.4351078827996275)"><path d="M0.76 0.58 C60.69 1.03, 300.14 2.43, 360.18 2.99 M-0.3 -0.16 C59.41 0.48, 299.01 4.2, 359.16 4.59" stroke="#1e1e1e" stroke-width="2" fill="none"></path></g><g transform="translate(284.7359190081073 225.16657470634652) rotate(0 180.15606147901036 1.4351078827996275)"><path d="M335.57 12.87 C344.75 9.6, 352.23 8.06, 359.16 4.59 M335.57 12.87 C344.94 9.53, 353.23 6.22, 359.16 4.59" stroke="#1e1e1e" stroke-width="2" fill="none"></path></g><g transform="translate(284.7359190081073 225.16657470634652) rotate(0 180.15606147901036 1.4351078827996275)"><path d="M335.77 -4.23 C344.92 -1.52, 352.32 2.91, 359.16 4.59 M335.77 -4.23 C345.09 -0.88, 353.31 2.5, 359.16 4.59" stroke="#1e1e1e" stroke-width="2" fill="none"></path></g></g><mask></mask><g transform="translate(349.9662277484623 199.11487847765068) rotate(0 123.78853603989995 9.187076789009893)"><text x="0" y="12.876606827476234" font-family="Virgil, Segoe UI Emoji" font-size="14.699322862415793px" fill="#1e1e1e" text-anchor="start" style="white-space: pre;" direction="ltr" dominant-baseline="alphabetic">exec_process(command)</text></g><g stroke-linecap="round"><g transform="translate(640.0298111858881 278.8151644041046) rotate(0 -179.81181159608144 -1.1488317399353605)"><path d="M0.71 0.79 C-58.88 0.42, -298.54 -1.57, -358.7 -1.91" stroke="#1e1e1e" stroke-width="2.5" fill="none" stroke-dasharray="8 10"></path></g><g transform="translate(640.0298111858881 278.8151644041046) rotate(0 -179.81181159608144 -1.1488317399353605)"><path d="M-335.15 -10.29 C-338.66 -6.9, -344.17 -7.78, -358.7 -1.91" stroke="#1e1e1e" stroke-width="2.5" fill="none"></path></g><g transform="translate(640.0298111858881 278.8151644041046) rotate(0 -179.81181159608144 -1.1488317399353605)"><path d="M-335.27 6.81 C-338.79 6.69, -344.27 2.29, -358.7 -1.91" stroke="#1e1e1e" stroke-width="2.5" fill="none"></path></g></g><mask></mask><g transform="translate(395.04891418315117 250.816093191596) rotate(0 66.72165908098458 9.187076789009893)"><text x="0" y="12.876606827476234" font-family="Virgil, Segoe UI Emoji" font-size="14.699322862415793px" fill="#1e1e1e" text-anchor="start" style="white-space: pre;" direction="ltr" dominant-baseline="alphabetic">stdout, stderr</text></g><g stroke-linecap="round"><g transform="translate(250.37038418409838 405.15138481083204) rotate(0 -115.53273337676364 0.7042067955645166)"><path d="M-0.5 0.33 C-39.12 0.63, -193.48 1.04, -231.82 1.15" stroke="#1e1e1e" stroke-width="2.5" fill="none" stroke-dasharray="8 10"></path></g><g transform="translate(250.37038418409838 405.15138481083204) rotate(0 -115.53273337676364 0.7042067955645166)"><path d="M-208.35 -7.47 C-214.66 -6.33, -222.44 -1.68, -231.82 1.15" stroke="#1e1e1e" stroke-width="2.5" fill="none"></path></g><g transform="translate(250.37038418409838 405.15138481083204) rotate(0 -115.53273337676364 0.7042067955645166)"><path d="M-208.31 9.63 C-214.53 5.82, -222.32 5.51, -231.82 1.15" stroke="#1e1e1e" stroke-width="2.5" fill="none"></path></g></g><mask></mask><g transform="translate(73.29506031012636 377.187364958134) rotate(0 86.21280041111743 9.187076789009893)"><text x="0" y="12.876606827476234" font-family="Virgil, Segoe UI Emoji" font-size="14.699322862415793px" fill="#1e1e1e" text-anchor="start" style="white-space: pre;" direction="ltr" dominant-baseline="alphabetic">outputs: Vec&lt;String&gt;</text></g><g stroke-linecap="round"><g transform="translate(279.8483549905176 315.77880741148965) rotate(0 37.360785299331724 12.002289694914452)"><path d="M1.2 -0.15 C13.4 1.8, 73.47 7.75, 73.63 11.93 C73.79 16.1, 14.18 22.94, 2.16 24.88 M0.37 -1.28 C12.89 0.33, 75.49 6.23, 75.76 10.28 C76.04 14.32, 14.3 20.63, 2.01 23" stroke="#1e1e1e" stroke-width="2" fill="none"></path></g><g transform="translate(279.8483549905176 315.77880741148965) rotate(0 37.360785299331724 12.002289694914452)"><path d="M24.07 11.24 C16.47 13.56, 10.87 21.25, 2.01 23 M24.07 11.24 C15.15 15.75, 8.52 19.67, 2.01 23" stroke="#1e1e1e" stroke-width="2" fill="none"></path></g><g transform="translate(279.8483549905176 315.77880741148965) rotate(0 37.360785299331724 12.002289694914452)"><path d="M26.47 28.18 C18.04 24.87, 11.64 26.91, 2.01 23 M26.47 28.18 C16.58 26.36, 9.06 23.96, 2.01 23" stroke="#1e1e1e" stroke-width="2" fill="none"></path></g></g><mask></mask><g transform="translate(365.86698608488234 318.454217581442) rotate(0 123.78853603989995 9.187076789009893)"><text x="0" y="12.876606827476234" font-family="Virgil, Segoe UI Emoji" font-size="14.699322862415793px" fill="#1e1e1e" text-anchor="start" style="white-space: pre;" direction="ltr" dominant-baseline="alphabetic">outputs.push(stdout)</text></g></svg>
