<svg version="1.1" xmlns="http://www.w3.org/2000/svg" viewBox="0 0 1337.1035940102379 612.2075414562879" width="2674.2071880204758" height="1224.4150829125758">
  <!-- svg-source:excalidraw -->
  
  <defs>
    <style class="style-fonts">
      @font-face {
        font-family: "Virgil";
        src: url("https://excalidraw.com/Virgil.woff2");
      }
      @font-face {
        font-family: "Cascadia";
        src: url("https://excalidraw.com/Cascadia.woff2");
      }
      @font-face {
        font-family: "Assistant";
        src: url("https://excalidraw.com/Assistant-Regular.woff2");
      }
    </style>
    
  </defs>
  <rect x="0" y="0" width="1337.1035940102379" height="612.2075414562879" fill="#ffffff"></rect><g stroke-linecap="round" transform="translate(642.1267803443614 226.46483025366138) rotate(0 340.04913796226805 141.20063659547145)"><path d="M32 0 C231.82 -0.86, 431.22 -0.33, 648.1 0 M32 0 C175.66 0.33, 318.48 0.45, 648.1 0 M648.1 0 C667.73 0.65, 679.05 9.71, 680.1 32 M648.1 0 C671.28 -2.22, 678.63 9.96, 680.1 32 M680.1 32 C680.13 96.2, 680.35 156.46, 680.1 250.4 M680.1 32 C680.64 90, 680.74 147.69, 680.1 250.4 M680.1 250.4 C681.42 270.73, 671.02 283.85, 648.1 282.4 M680.1 250.4 C681.66 271.2, 669.24 280.59, 648.1 282.4 M648.1 282.4 C426.6 282.26, 205.21 282.08, 32 282.4 M648.1 282.4 C410.68 281.47, 173.3 281.13, 32 282.4 M32 282.4 C10.54 282.1, 1.26 270.31, 0 250.4 M32 282.4 C11.21 283.95, 0.92 272.19, 0 250.4 M0 250.4 C1.69 181.82, 3.18 112.43, 0 32 M0 250.4 C-0.47 200.24, -1.22 151.6, 0 32 M0 32 C0.9 11.21, 10.94 -1.1, 32 0 M0 32 C1.23 12.07, 12.92 0.91, 32 0" stroke="#1e1e1e" stroke-width="2" fill="none"></path></g><g stroke-linecap="round" transform="translate(833.2523018416954 183.91457796507393) rotate(0 7.8114013671875 180.66836957041767)"><path d="M0 0 C5.53 -0.25, 11.1 0.66, 15.62 0 M0 0 C5.88 0.19, 12.34 -0.04, 15.62 0 M15.62 0 C15.83 127.55, 15.88 253.65, 15.62 361.34 M15.62 0 C15.2 91.2, 15.34 181.99, 15.62 361.34 M15.62 361.34 C10.11 361.33, 3.84 361.28, 0 361.34 M15.62 361.34 C11.08 361.09, 6.54 360.98, 0 361.34 M0 361.34 C0.03 226.73, -0.26 92.93, 0 0 M0 361.34 C-1.21 264.31, -1.04 166.97, 0 0" stroke="#000000" stroke-width="1" fill="none"></path></g><g stroke-linecap="round"><g transform="translate(840.071407946141 154.59182405882393) rotate(0 -0.9521484375 14.551055908203125)"><path d="M-0.12 -0.03 C-0.44 4.92, -1.11 24.71, -1.38 29.65" stroke="#000000" stroke-width="1.5" fill="none" stroke-dasharray="8 9"></path></g></g><mask></mask><g stroke-linecap="round"><g transform="translate(839.1303283398555 542.9200387465478) rotate(0 0.04765924155128687 23.104194651934108)"><path d="M0.52 0.55 C0.58 8.34, 0.37 39.03, 0.21 46.7" stroke="#000000" stroke-width="1.5" fill="none" stroke-dasharray="8 9"></path></g></g><mask></mask><g stroke-linecap="round" transform="translate(775.6066862664535 108.38418245726143) rotate(0 70.220458984375 22.27655029296875)"><path d="M0 0 C57.19 -2.15, 112.1 -1.05, 140.44 0 M0 0 C43.11 -0.84, 87.56 -0.76, 140.44 0 M140.44 0 C139.55 11.55, 140.62 24.1, 140.44 44.55 M140.44 0 C141.26 9.84, 140.7 18.69, 140.44 44.55 M140.44 44.55 C100.74 45.36, 58.24 45.24, 0 44.55 M140.44 44.55 C111.99 46.06, 83.55 45.6, 0 44.55 M0 44.55 C0.99 27.39, 2.08 12.24, 0 0 M0 44.55 C-0.6 27.58, -0.21 8.56, 0 0" stroke="#000000" stroke-width="1" fill="none"></path></g><g transform="translate(786.7171904168441 118.16073275023018) rotate(0 59.109954833984375 12.5)"><text x="59.109954833984375" y="17.52" font-family="Virgil, Segoe UI Emoji" font-size="20px" fill="#1e1e1e" text-anchor="middle" style="white-space: pre;" direction="ltr" dominant-baseline="alphabetic">Thread (1..j)</text></g><g stroke-linecap="round"><g transform="translate(280.3319837226896 212.43810817600968) rotate(0 272.7759057554249 1.6517551954324858)"><path d="M0.89 -1.19 C91.79 -0.45, 454.95 3.15, 545.54 3.89 M-0.11 0.79 C90.62 1.23, 453.45 1.46, 544.59 2.08" stroke="#1e1e1e" stroke-width="2" fill="none"></path></g><g transform="translate(280.3319837226896 212.43810817600968) rotate(0 272.7759057554249 1.6517551954324858)"><path d="M521.07 10.55 C526.43 7.72, 536.71 3.22, 544.59 2.08 M521.07 10.55 C528.26 8.23, 535.5 4.81, 544.59 2.08" stroke="#1e1e1e" stroke-width="2" fill="none"></path></g><g transform="translate(280.3319837226896 212.43810817600968) rotate(0 272.7759057554249 1.6517551954324858)"><path d="M521.12 -6.55 C526.38 -4.06, 536.65 -3.25, 544.59 2.08 M521.12 -6.55 C528.46 -3.85, 535.68 -2.25, 544.59 2.08" stroke="#1e1e1e" stroke-width="2" fill="none"></path></g></g><mask></mask><g transform="translate(629.6197610083797 189.8619203408452) rotate(0 64.49113126808061 9.187076789009865)"><text x="0" y="12.876606827476234" font-family="Virgil, Segoe UI Emoji" font-size="14.699322862415793px" fill="#1e1e1e" text-anchor="start" style="white-space: pre;" direction="ltr" dominant-baseline="alphabetic">Command: String</text></g><g stroke-linecap="round"><g transform="translate(858.7900895044828 308.3856328604022) rotate(0 36.17252198763737 11.15923965315153)"><path d="M0.3 -1.02 C12.5 0.46, 73.2 6.16, 73.32 9.87 C73.43 13.59, 13.03 19.31, 0.96 21.28 M-1 1.06 C11.12 3.21, 72.57 7.6, 72.85 11.1 C73.14 14.59, 12.59 20.16, 0.73 22.05" stroke="#1e1e1e" stroke-width="2" fill="none"></path></g><g transform="translate(858.7900895044828 308.3856328604022) rotate(0 36.17252198763737 11.15923965315153)"><path d="M23.01 10.73 C14.53 15.83, 8.35 19.45, 0.73 22.05 M23.01 10.73 C19.1 13.96, 13.79 14.46, 0.73 22.05" stroke="#1e1e1e" stroke-width="2" fill="none"></path></g><g transform="translate(858.7900895044828 308.3856328604022) rotate(0 36.17252198763737 11.15923965315153)"><path d="M25.08 27.7 C15.82 27.57, 9 25.95, 0.73 22.05 M25.08 27.7 C20.59 27.3, 14.84 24.17, 0.73 22.05" stroke="#1e1e1e" stroke-width="2" fill="none"></path></g></g><mask></mask><g transform="translate(1154.6779931880028 233.66794149936038) rotate(0 86.21280041111743 9.187076789009893)"><text x="0" y="12.876606827476234" font-family="Virgil, Segoe UI Emoji" font-size="14.699322862415793px" fill="#1e1e1e" text-anchor="start" style="white-space: pre;" direction="ltr" dominant-baseline="alphabetic">While msg != Quit</text></g><g transform="translate(942.4727694414628 310.5077914404478) rotate(0 123.78853603989995 9.187076789009893)"><text x="0" y="12.876606827476234" font-family="Virgil, Segoe UI Emoji" font-size="14.699322862415793px" fill="#1e1e1e" text-anchor="start" style="white-space: pre;" direction="ltr" dominant-baseline="alphabetic">build_command(job, input)</text></g><g stroke-linecap="round" transform="translate(1226.8381097990964 382.70310530249776) rotate(0 7.8114013671875 24.746557072079327)"><path d="M0 0 C4.17 0.38, 8.76 -0.58, 15.62 0 M0 0 C4.76 -0.22, 9.29 -0.19, 15.62 0 M15.62 0 C16.25 13.59, 15.1 25.71, 15.62 49.49 M15.62 0 C15.6 19.1, 15.95 38.55, 15.62 49.49 M15.62 49.49 C11.31 49.29, 7.91 49.52, 0 49.49 M15.62 49.49 C10.18 49.8, 4.34 49.9, 0 49.49 M0 49.49 C-0.39 36.24, -0.95 24.47, 0 0 M0 49.49 C0.24 37.96, 0.14 26.55, 0 0" stroke="#000000" stroke-width="1" fill="none"></path></g><g stroke-linecap="round"><g transform="translate(1235.641896210192 350.95072801200035) rotate(0 -0.9521484375 14.551055908203125)"><path d="M0.26 0.35 C-0.11 5.2, -1.91 24.39, -2.32 29.14" stroke="#000000" stroke-width="1.5" fill="none" stroke-dasharray="8 9"></path></g></g><mask></mask><g stroke-linecap="round"><g transform="translate(1235.2072320803827 431.91109379282375) rotate(0 0.23061280964225261 9.309495617879804)"><path d="M-0.42 0.04 C-0.43 3.05, 0.04 15.35, 0.18 18.39" stroke="#000000" stroke-width="1.5" fill="none" stroke-dasharray="8 9"></path></g></g><mask></mask><g stroke-linecap="round" transform="translate(1171.1771745305045 304.64941418357535) rotate(0 70.220458984375 22.27655029296875)"><path d="M0 0 C30.64 0.56, 61.67 -0.84, 140.44 0 M0 0 C33.6 1.11, 69.13 -0.04, 140.44 0 M140.44 0 C142.44 13.81, 140.08 28.64, 140.44 44.55 M140.44 0 C139.41 12.11, 139.92 25.39, 140.44 44.55 M140.44 44.55 C97.66 45.93, 54.66 44.44, 0 44.55 M140.44 44.55 C85.59 44.42, 28.24 43.86, 0 44.55 M0 44.55 C0.85 32.13, 0.09 18.89, 0 0 M0 44.55 C-0.87 30.28, -0.24 18.25, 0 0" stroke="#000000" stroke-width="1" fill="none"></path></g><g transform="translate(1203.597676239489 314.4259644765441) rotate(0 37.799957275390625 12.5)"><text x="37.799957275390625" y="17.52" font-family="Virgil, Segoe UI Emoji" font-size="20px" fill="#1e1e1e" text-anchor="middle" style="white-space: pre;" direction="ltr" dominant-baseline="alphabetic">Process</text></g><g stroke-linecap="round"><g transform="translate(863.3131078409378 379.148151063617) rotate(0 180.19290483622495 1.435401373853665)"><path d="M0.76 0.58 C60.7 1.03, 300.2 2.43, 360.25 2.99 M-0.3 -0.16 C59.42 0.48, 299.07 4.2, 359.23 4.59" stroke="#1e1e1e" stroke-width="2" fill="none"></path></g><g transform="translate(863.3131078409378 379.148151063617) rotate(0 180.19290483622495 1.435401373853665)"><path d="M335.64 12.87 C344.83 9.6, 352.3 8.06, 359.23 4.59 M335.64 12.87 C345.01 9.53, 353.31 6.22, 359.23 4.59" stroke="#1e1e1e" stroke-width="2" fill="none"></path></g><g transform="translate(863.3131078409378 379.148151063617) rotate(0 180.19290483622495 1.435401373853665)"><path d="M335.84 -4.23 C345 -1.52, 352.4 2.91, 359.23 4.59 M335.84 -4.23 C345.17 -0.88, 353.38 2.5, 359.23 4.59" stroke="#1e1e1e" stroke-width="2" fill="none"></path></g></g><mask></mask><g transform="translate(928.5434165812928 353.09645483492125) rotate(0 123.78853603989995 9.187076789009893)"><text x="0" y="12.876606827476234" font-family="Virgil, Segoe UI Emoji" font-size="14.699322862415793px" fill="#1e1e1e" text-anchor="start" style="white-space: pre;" direction="ltr" dominant-baseline="alphabetic">exec_process(command)</text></g><g stroke-linecap="round"><g transform="translate(1218.6289457767643 432.7968809745412) rotate(0 -179.8227844751043 -1.1489018465183563)"><path d="M0.71 0.79 C-58.89 0.42, -298.56 -1.57, -358.72 -1.91" stroke="#1e1e1e" stroke-width="2.5" fill="none" stroke-dasharray="8 10"></path></g><g transform="translate(1218.6289457767643 432.7968809745412) rotate(0 -179.8227844751043 -1.1489018465183563)"><path d="M-335.17 -10.29 C-338.68 -6.9, -344.19 -7.78, -358.72 -1.91" stroke="#1e1e1e" stroke-width="2.5" fill="none"></path></g><g transform="translate(1218.6289457767643 432.7968809745412) rotate(0 -179.8227844751043 -1.1489018465183563)"><path d="M-335.29 6.81 C-338.82 6.69, -344.3 2.29, -358.72 -1.91" stroke="#1e1e1e" stroke-width="2.5" fill="none"></path></g></g><mask></mask><g transform="translate(973.6261030159817 404.79766954886657) rotate(0 66.72165908098458 9.187076789009893)"><text x="0" y="12.876606827476234" font-family="Virgil, Segoe UI Emoji" font-size="14.699322862415793px" fill="#1e1e1e" text-anchor="start" style="white-space: pre;" direction="ltr" dominant-baseline="alphabetic">stdout, stderr</text></g><g stroke-linecap="round"><g transform="translate(823.5824228450722 539.3187608606868) rotate(0 -0.04129403429294598 -0.05845860866918429)"><path d="M-0.15 0.1 C-0.19 0.1, -0.34 -0.14, -0.31 -0.19" stroke="#1e1e1e" stroke-width="2.5" fill="none" stroke-dasharray="8 10"></path></g><g transform="translate(823.5824228450722 539.3187608606868) rotate(0 -0.04129403429294598 -0.05845860866918429)"><path d="M-0.28 -0.13 C-0.28 -0.15, -0.29 -0.17, -0.31 -0.19" stroke="#1e1e1e" stroke-width="2.5" fill="none"></path></g><g transform="translate(823.5824228450722 539.3187608606868) rotate(0 -0.04129403429294598 -0.05845860866918429)"><path d="M-0.32 -0.12 C-0.32 -0.15, -0.31 -0.16, -0.31 -0.19" stroke="#1e1e1e" stroke-width="2.5" fill="none"></path></g></g><mask></mask><g stroke-linecap="round" transform="translate(253.9050173227671 104.20948668358176) rotate(0 7.8114013671875 218.01172878828714)"><path d="M0 0 C3.14 0.47, 7.91 -0.46, 15.62 0 M0 0 C4.21 -0.12, 8.8 -0.09, 15.62 0 M15.62 0 C16.88 140.97, 17.03 281.35, 15.62 436.02 M15.62 0 C15.24 106.52, 15.03 212.56, 15.62 436.02 M15.62 436.02 C11.17 436.54, 4.58 435.83, 0 436.02 M15.62 436.02 C10.93 435.77, 7.07 435.71, 0 436.02 M0 436.02 C0 345.04, 0.11 253.78, 0 0 M0 436.02 C0.28 279.96, 0.3 124.48, 0 0" stroke="#000000" stroke-width="1" fill="none"></path></g><g stroke-linecap="round"><g transform="translate(262.5324430553792 72.0651305988996) rotate(0 -0.9521484375 14.551055908203125)"><path d="M0.36 0.39 C-0.06 5.29, -1.87 24.22, -2.2 28.99" stroke="#000000" stroke-width="1.5" fill="none" stroke-dasharray="8 9"></path></g></g><mask></mask><g stroke-linecap="round"><g transform="translate(259.7830438209272 537.9016659007945) rotate(0 0.04765924155128687 23.104194651934108)"><path d="M-0.29 -0.12 C-0.29 7.5, 0.37 38.41, 0.4 46.1" stroke="#000000" stroke-width="1.5" fill="none" stroke-dasharray="8 9"></path></g></g><mask></mask><g stroke-linecap="round" transform="translate(197.08951399062732 26.512225414431782) rotate(0 70.220458984375 22.27655029296875)"><path d="M0 0 C34.3 -1.53, 68.68 -0.35, 140.44 0 M0 0 C38.01 -0.86, 77.58 -0.57, 140.44 0 M140.44 0 C140.63 15.19, 141.68 27.82, 140.44 44.55 M140.44 0 C141.53 12.37, 141.16 21.99, 140.44 44.55 M140.44 44.55 C103.62 42.27, 64.59 44.84, 0 44.55 M140.44 44.55 C110.18 44.29, 80.02 44.5, 0 44.55 M0 44.55 C-1.93 30.08, -1.78 17.22, 0 0 M0 44.55 C-0.02 27.18, -0.11 10.42, 0 0" stroke="#000000" stroke-width="1" fill="none"></path></g><g transform="translate(222.03001997207264 36.28877570740053) rotate(0 45.27995300292969 12.5)"><text x="45.27995300292969" y="17.52" font-family="Virgil, Segoe UI Emoji" font-size="20px" fill="#1e1e1e" text-anchor="middle" style="white-space: pre;" direction="ltr" dominant-baseline="alphabetic">Scheduler</text></g><g transform="translate(1229.1353535671556 441.6941619466527) rotate(0 5.6199951171875 12.5)"><text x="0" y="17.52" font-family="Virgil, Segoe UI Emoji" font-size="20px" fill="#1e1e1e" text-anchor="start" style="white-space: pre;" direction="ltr" dominant-baseline="alphabetic">x</text></g><g transform="translate(668.4309072576494 448.46984016894703) rotate(0 56.76166683411566 9.187076789009893)"><text x="0" y="12.876606827476234" font-family="Virgil, Segoe UI Emoji" font-size="14.699322862415793px" fill="#1e1e1e" text-anchor="start" style="white-space: pre;" direction="ltr" dominant-baseline="alphabetic">output: String</text></g><g stroke-linecap="round" transform="translate(530.312592259697 100.64490182365785) rotate(0 7.8114013671875 220.82553648556336)"><path d="M0 0 C3.89 0.66, 8.74 -0.77, 15.62 0 M0 0 C4.84 -0.08, 9.7 -0.31, 15.62 0 M15.62 0 C14.69 106.35, 14.99 213.87, 15.62 441.65 M15.62 0 C16.5 122.97, 16.38 246.01, 15.62 441.65 M15.62 441.65 C9.3 441.28, 4.91 442.22, 0 441.65 M15.62 441.65 C10.11 441.56, 4.44 441.94, 0 441.65 M0 441.65 C-0.68 338.6, -0.16 235.35, 0 0 M0 441.65 C-0.3 269.49, -0.6 97.51, 0 0" stroke="#000000" stroke-width="1" fill="none"></path></g><g stroke-linecap="round"><g transform="translate(538.9711959169323 70.0672364513095) rotate(0 -0.9521484375 14.551055908203125)"><path d="M0.47 0.02 C0.05 4.93, -2.13 24.29, -2.44 29.13" stroke="#000000" stroke-width="1.5" fill="none" stroke-dasharray="8 9"></path></g></g><mask></mask><g stroke-linecap="round"><g transform="translate(536.1906187578571 539.9646964354232) rotate(0 0.04765924155128687 23.104194651934108)"><path d="M-0.54 0.03 C-0.51 7.72, 0.49 38.48, 0.62 46.16" stroke="#000000" stroke-width="1.5" fill="none" stroke-dasharray="8 9"></path></g></g><mask></mask><g stroke-linecap="round" transform="translate(473.37627446964086 23.941575354875738) rotate(0 70.220458984375 22.27655029296875)"><path d="M0 0 C28.22 -0.94, 56.39 -0.44, 140.44 0 M0 0 C30.33 0.19, 60.13 0.78, 140.44 0 M140.44 0 C139.65 14.79, 140.92 28.9, 140.44 44.55 M140.44 0 C141.17 16.41, 140.21 35.3, 140.44 44.55 M140.44 44.55 C87.63 44.71, 36.85 44.07, 0 44.55 M140.44 44.55 C86.12 44.8, 32.84 45.85, 0 44.55 M0 44.55 C-2.05 28.95, -1.31 10.48, 0 0 M0 44.55 C-0.8 32.65, 0.17 20.43, 0 0" stroke="#000000" stroke-width="1" fill="none"></path></g><g transform="translate(484.106773737219 33.71812564784449) rotate(0 59.489959716796875 12.5)"><text x="59.489959716796875" y="17.52" font-family="Virgil, Segoe UI Emoji" font-size="20px" fill="#1e1e1e" text-anchor="middle" style="white-space: pre;" direction="ltr" dominant-baseline="alphabetic">Channel (1..j)</text></g><g transform="translate(833.7517505262591 577.2075414562879) rotate(0 5.6199951171875 12.5)"><text x="0" y="17.52" font-family="Virgil, Segoe UI Emoji" font-size="20px" fill="#1e1e1e" text-anchor="start" style="white-space: pre;" direction="ltr" dominant-baseline="alphabetic">x</text></g><g stroke-linecap="round"><g transform="translate(276.8979995186037 120.54124715885683) rotate(0 36.95472025362761 10.77153354190429)"><path d="M0.97 0.81 C12.95 2.59, 73.08 7.8, 73.09 11.43 C73.09 15.07, 12.74 21.12, 0.99 22.62 M0.01 0.19 C12.28 2.09, 75.38 9.44, 75.37 12.88 C75.36 16.32, 12.54 19.5, -0.05 20.84" stroke="#1e1e1e" stroke-width="2" fill="none"></path></g><g transform="translate(276.8979995186037 120.54124715885683) rotate(0 36.95472025362761 10.77153354190429)"><path d="M22.72 10.53 C15.09 13.44, 4.41 18.01, -0.05 20.84 M22.72 10.53 C14 14.14, 5.85 17.69, -0.05 20.84" stroke="#1e1e1e" stroke-width="2" fill="none"></path></g><g transform="translate(276.8979995186037 120.54124715885683) rotate(0 36.95472025362761 10.77153354190429)"><path d="M24.02 27.58 C15.76 23.73, 4.57 21.52, -0.05 20.84 M24.02 27.58 C14.63 24.54, 5.98 21.45, -0.05 20.84" stroke="#1e1e1e" stroke-width="2" fill="none"></path></g></g><mask></mask><g transform="translate(360.8631074382411 118.68966169963448) rotate(0 59.69752535720821 9.187076789009865)"><text x="0" y="12.876606827476234" font-family="Virgil, Segoe UI Emoji" font-size="14.699322862415793px" fill="#1e1e1e" text-anchor="start" style="white-space: pre;" direction="ltr" dominant-baseline="alphabetic">read from stdin</text></g><g stroke-linecap="round"><g transform="translate(277.27285441936766 180.4125287726069) rotate(0 121.07521247818809 0.007980761942889103)"><path d="M-0.08 -0.84 C40.37 -0.71, 202.99 0.44, 243.25 0.4 M-1.58 1.33 C38.75 1.13, 202.55 -1.24, 242.89 -1.51" stroke="#1e1e1e" stroke-width="2" fill="none"></path></g><g transform="translate(277.27285441936766 180.4125287726069) rotate(0 121.07521247818809 0.007980761942889103)"><path d="M219.49 7.3 C226.29 6.08, 236.5 0.1, 242.89 -1.51 M219.49 7.3 C224.08 5.5, 228.88 3, 242.89 -1.51" stroke="#1e1e1e" stroke-width="2" fill="none"></path></g><g transform="translate(277.27285441936766 180.4125287726069) rotate(0 121.07521247818809 0.007980761942889103)"><path d="M219.3 -9.8 C226.11 -5.06, 236.39 -5.07, 242.89 -1.51 M219.3 -9.8 C224.05 -8.02, 228.89 -6.94, 242.89 -1.51" stroke="#1e1e1e" stroke-width="2" fill="none"></path></g></g><mask></mask><g transform="translate(342.4116219219599 157.4788971719214) rotate(0 60.64455481764887 9.187076789009865)"><text x="0" y="12.876606827476234" font-family="Virgil, Segoe UI Emoji" font-size="14.699322862415793px" fill="#1e1e1e" text-anchor="start" style="white-space: pre;" direction="ltr" dominant-baseline="alphabetic">send(Message)</text></g><g stroke-linecap="round"><g transform="translate(824.6051010936128 263.0603224158241) rotate(0 -134.5814602578874 -0.3039847650796901)"><path d="M-0.47 0.17 C-45.5 0.22, -224.38 0.13, -269.06 -0.16 M1.49 -0.78 C-43.79 -1.06, -224.88 -2.05, -269.95 -2.05" stroke="#1e1e1e" stroke-width="2" fill="none"></path></g><g transform="translate(824.6051010936128 263.0603224158241) rotate(0 -134.5814602578874 -0.3039847650796901)"><path d="M-246.43 -10.52 C-255.47 -7.09, -264.31 -2.82, -269.95 -2.05 M-246.43 -10.52 C-251.34 -8.14, -257.11 -6.67, -269.95 -2.05" stroke="#1e1e1e" stroke-width="2" fill="none"></path></g><g transform="translate(824.6051010936128 263.0603224158241) rotate(0 -134.5814602578874 -0.3039847650796901)"><path d="M-246.49 6.58 C-255.44 3.25, -264.26 0.76, -269.95 -2.05 M-246.49 6.58 C-251.53 5.21, -257.28 2.94, -269.95 -2.05" stroke="#1e1e1e" stroke-width="2" fill="none"></path></g></g><mask></mask><g transform="translate(669.2303195478536 237.34894557632708) rotate(0 64.49113126808061 9.187076789009893)"><text x="0" y="12.876606827476234" font-family="Virgil, Segoe UI Emoji" font-size="14.699322862415793px" fill="#1e1e1e" text-anchor="start" style="white-space: pre;" direction="ltr" dominant-baseline="alphabetic">Receive</text></g><g transform="translate(954.224186925083 100.99618947576403) rotate(0 99.97320247613902 47.88205561373286)"><text x="0" y="13.422297829641598" font-family="Virgil, Segoe UI Emoji" font-size="15.322257796394517px" fill="#1e1e1e" text-anchor="start" style="white-space: pre;" direction="ltr" dominant-baseline="alphabetic">pub enum Message {</text><text x="0" y="32.57512007513475" font-family="Virgil, Segoe UI Emoji" font-size="15.322257796394517px" fill="#1e1e1e" text-anchor="start" style="white-space: pre;" direction="ltr" dominant-baseline="alphabetic">    Job((usize, String)),</text><text x="0" y="51.727942320627896" font-family="Virgil, Segoe UI Emoji" font-size="15.322257796394517px" fill="#1e1e1e" text-anchor="start" style="white-space: pre;" direction="ltr" dominant-baseline="alphabetic">    Quit,</text><text x="0" y="70.88076456612104" font-family="Virgil, Segoe UI Emoji" font-size="15.322257796394517px" fill="#1e1e1e" text-anchor="start" style="white-space: pre;" direction="ltr" dominant-baseline="alphabetic">}</text><text x="0" y="90.03358681161419" font-family="Virgil, Segoe UI Emoji" font-size="15.322257796394517px" fill="#1e1e1e" text-anchor="start" style="white-space: pre;" direction="ltr" dominant-baseline="alphabetic"></text></g><g stroke-linecap="round"><g transform="translate(556.3910543306054 298.55289211465833) rotate(0 131.57951242664404 0.1299995687744513)"><path d="M-0.15 -0.87 C43.63 -0.96, 219.44 -0.54, 263.16 -0.19" stroke="#1e1e1e" stroke-width="2.5" fill="none" stroke-dasharray="8 10"></path></g><g transform="translate(556.3910543306054 298.55289211465833) rotate(0 131.57951242664404 0.1299995687744513)"><path d="M239.63 8.25 C246.14 5.41, 254.84 0.9, 263.16 -0.19" stroke="#1e1e1e" stroke-width="2.5" fill="none"></path></g><g transform="translate(556.3910543306054 298.55289211465833) rotate(0 131.57951242664404 0.1299995687744513)"><path d="M239.71 -8.85 C246.24 -5.88, 254.91 -4.58, 263.16 -0.19" stroke="#1e1e1e" stroke-width="2.5" fill="none"></path></g></g><mask></mask><g transform="translate(676.8689110806257 273.0554637514598) rotate(0 64.49113126808061 9.187076789009893)"><text x="0" y="12.876606827476234" font-family="Virgil, Segoe UI Emoji" font-size="14.699322862415793px" fill="#1e1e1e" text-anchor="start" style="white-space: pre;" direction="ltr" dominant-baseline="alphabetic">msg: Message</text></g><g stroke-linecap="round"><g transform="translate(820.2344725547108 471.3808051563957) rotate(0 -363.8173580207567 -0.33827580630583043)"><path d="M0.94 1.15 C-120.35 1.01, -606.42 -0.65, -727.69 -0.91" stroke="#1e1e1e" stroke-width="2.5" fill="none" stroke-dasharray="8 10"></path></g><g transform="translate(820.2344725547108 471.3808051563957) rotate(0 -363.8173580207567 -0.33827580630583043)"><path d="M-704.18 -9.39 C-709.41 -6.73, -718.85 -2.56, -727.69 -0.91" stroke="#1e1e1e" stroke-width="2.5" fill="none"></path></g><g transform="translate(820.2344725547108 471.3808051563957) rotate(0 -363.8173580207567 -0.33827580630583043)"><path d="M-704.23 7.71 C-709.44 5.18, -718.86 4.16, -727.69 -0.91" stroke="#1e1e1e" stroke-width="2.5" fill="none"></path></g></g><mask></mask><g stroke-linecap="round" transform="translate(66.93631779005614 101.43099861283633) rotate(0 7.8114013671875 220.8255364855633)"><path d="M0 0 C2.91 -0.07, 8.01 0.24, 15.62 0 M0 0 C4.92 0.22, 9.84 -0.13, 15.62 0 M15.62 0 C15.83 158.09, 16.24 315.73, 15.62 441.65 M15.62 0 C16.07 103.56, 16.1 206.75, 15.62 441.65 M15.62 441.65 C12.89 442.09, 9.64 441.56, 0 441.65 M15.62 441.65 C11.04 442, 6.9 441.83, 0 441.65 M0 441.65 C-0.08 318.51, 0.58 195.35, 0 0 M0 441.65 C-0.24 331.71, -0.42 221.49, 0 0" stroke="#000000" stroke-width="1" fill="none"></path></g><g stroke-linecap="round"><g transform="translate(75.59492144729143 70.85333324048804) rotate(0 -0.9521484375 14.551055908203125)"><path d="M-0.01 0.46 C-0.36 5.4, -1.37 24.39, -1.69 29.14" stroke="#000000" stroke-width="1.5" fill="none" stroke-dasharray="8 9"></path></g></g><mask></mask><g stroke-linecap="round"><g transform="translate(72.81434428821626 540.7507932246016) rotate(0 0.04765924155128687 23.104194651934108)"><path d="M0.21 0.04 C0.22 7.64, 0.06 38.3, 0.07 46.04" stroke="#000000" stroke-width="1.5" fill="none" stroke-dasharray="8 9"></path></g></g><mask></mask><g stroke-linecap="round" transform="translate(10 10) rotate(0 70.22045898437499 30)"><path d="M0 0 C46.9 0.7, 96 1.38, 140.44 0 M0 0 C36.79 -0.32, 73.75 0.52, 140.44 0 M140.44 0 C141.25 14.58, 141.1 30.59, 140.44 60 M140.44 0 C139.47 16.3, 140.47 31.94, 140.44 60 M140.44 60 C101.21 59.45, 59.83 61.48, 0 60 M140.44 60 C93.92 59.25, 48.38 60.58, 0 60 M0 60 C2.04 42.02, 1.37 21.16, 0 0 M0 60 C-0.02 42.01, 0.77 25.21, 0 0" stroke="#000000" stroke-width="1" fill="none"></path></g><g transform="translate(40.9304962158203 15) rotate(0 39.28996276855469 25)"><text x="39.28996276855469" y="17.52" font-family="Virgil, Segoe UI Emoji" font-size="20px" fill="#1e1e1e" text-anchor="middle" style="white-space: pre;" direction="ltr" dominant-baseline="alphabetic">Stdout </text><text x="39.28996276855469" y="42.519999999999996" font-family="Virgil, Segoe UI Emoji" font-size="20px" fill="#1e1e1e" text-anchor="middle" style="white-space: pre;" direction="ltr" dominant-baseline="alphabetic">channel</text></g><g stroke-linecap="round" transform="translate(116.663555628739 149.1673637659581) rotate(0 233.67075057242897 28.108847668428638)"><path d="M14.05 0 C187.6 0.3, 360.1 -0.38, 453.29 0 M14.05 0 C163.94 -1.36, 313.55 -1.88, 453.29 0 M453.29 0 C461.11 -1.76, 469.15 5.2, 467.34 14.05 M453.29 0 C463.8 -0.33, 466.32 5.7, 467.34 14.05 M467.34 14.05 C466.1 23.64, 469.46 33.59, 467.34 42.16 M467.34 14.05 C467.06 24.62, 468.19 34.84, 467.34 42.16 M467.34 42.16 C467.17 52.13, 461.55 57.13, 453.29 56.22 M467.34 42.16 C465.14 53.49, 460.41 58.22, 453.29 56.22 M453.29 56.22 C347.75 55.95, 243.13 55.06, 14.05 56.22 M453.29 56.22 C324.09 56.53, 194.78 56.74, 14.05 56.22 M14.05 56.22 C3.84 54.91, -1.22 53.4, 0 42.16 M14.05 56.22 C5.36 56.66, -2.19 52.02, 0 42.16 M0 42.16 C-0.51 32.16, 0.35 24.56, 0 14.05 M0 42.16 C0.11 34.77, 0.61 28.92, 0 14.05 M0 14.05 C1.74 3.27, 3.13 0.77, 14.05 0 M0 14.05 C-0.46 5.9, 5.73 0.84, 14.05 0" stroke="#1e1e1e" stroke-width="2" fill="none"></path></g><g transform="translate(130.5342406613995 156.48120358396756) rotate(0 51.18595193497623 24.33211422974665)"><text x="0" y="11.367963768137635" font-family="Virgil, Segoe UI Emoji" font-size="12.977127589198213px" fill="#1e1e1e" text-anchor="start" style="white-space: pre;" direction="ltr" dominant-baseline="alphabetic">for n lines, send</text><text x="0" y="27.5893732546354" font-family="Virgil, Segoe UI Emoji" font-size="12.977127589198213px" fill="#1e1e1e" text-anchor="start" style="white-space: pre;" direction="ltr" dominant-baseline="alphabetic">n/j jobs to j </text><text x="0" y="43.81078274113317" font-family="Virgil, Segoe UI Emoji" font-size="12.977127589198213px" fill="#1e1e1e" text-anchor="start" style="white-space: pre;" direction="ltr" dominant-baseline="alphabetic">threads</text></g></svg>