<svg version="1.1" xmlns="http://www.w3.org/2000/svg" viewBox="0 0 1333.0746547148897 782.405222084127" width="2666.1493094297794" height="1564.810444168254">
  <!-- svg-source:excalidraw -->
  
  <defs>
    <style class="style-fonts">
      @font-face {
        font-family: "Virgil";
        src: url("https://excalidraw.com/Virgil.woff2");
      }
      @font-face {
        font-family: "Cascadia";
        src: url("https://excalidraw.com/Cascadia.woff2");
      }
      @font-face {
        font-family: "Assistant";
        src: url("https://excalidraw.com/Assistant-Regular.woff2");
      }
    </style>
    
  </defs>
  <rect x="0" y="0" width="1333.0746547148897" height="782.405222084127" fill="#ffffff"></rect><g stroke-linecap="round" transform="translate(642.9763787903535 192.74248831137794) rotate(0 340.04913796226805 139.9924920163084)"><path d="M32 0 C231.82 -0.86, 431.22 -0.33, 648.1 0 M32 0 C175.66 0.33, 318.48 0.45, 648.1 0 M648.1 0 C667.73 0.65, 679.05 9.71, 680.1 32 M648.1 0 C671.28 -2.22, 678.63 9.96, 680.1 32 M680.1 32 C680.15 95.51, 680.37 155.06, 680.1 247.98 M680.1 32 C680.63 89.36, 680.73 146.4, 680.1 247.98 M680.1 247.98 C681.42 268.32, 671.02 281.44, 648.1 279.98 M680.1 247.98 C681.66 268.79, 669.24 278.17, 648.1 279.98 M648.1 279.98 C426.6 279.85, 205.21 279.66, 32 279.98 M648.1 279.98 C410.68 279.05, 173.3 278.72, 32 279.98 M32 279.98 C10.54 279.68, 1.26 267.9, 0 247.98 M32 279.98 C11.21 281.54, 0.92 269.77, 0 247.98 M0 247.98 C1.68 180.18, 3.17 111.56, 0 32 M0 247.98 C-0.46 198.37, -1.21 150.28, 0 32 M0 32 C0.9 11.21, 10.94 -1.1, 32 0 M0 32 C1.23 12.07, 12.92 0.91, 32 0" stroke="#1e1e1e" stroke-width="2" fill="none"></path></g><g stroke-linecap="round" transform="translate(833.2523018416954 131.34128334727023) rotate(0 7.8114013671875 206.7350631760031)"><path d="M0 0 C5.53 -0.25, 11.1 0.66, 15.62 0 M0 0 C5.88 0.19, 12.34 -0.04, 15.62 0 M15.62 0 C15.85 145.78, 15.9 290.31, 15.62 413.47 M15.62 0 C15.21 104.34, 15.33 208.32, 15.62 413.47 M15.62 413.47 C10.11 413.46, 3.84 413.41, 0 413.47 M15.62 413.47 C11.08 413.22, 6.54 413.11, 0 413.47 M0 413.47 C-0.04 259.5, -0.29 106.22, 0 0 M0 413.47 C-1.18 302.36, -1.03 190.98, 0 0" stroke="#000000" stroke-width="1" fill="none"></path></g><g stroke-linecap="round"><g transform="translate(841.3263194122393 98.69418322803295) rotate(0 -0.9521484375 14.551055908203125)"><path d="M-0.12 -0.03 C-0.44 4.92, -1.11 24.71, -1.38 29.65" stroke="#000000" stroke-width="1.5" fill="none" stroke-dasharray="8 9"></path></g></g><mask></mask><g stroke-linecap="round"><g transform="translate(839.1303283398555 549.1794878934024) rotate(0 0.04765924155128687 23.104194651934108)"><path d="M0.52 0.55 C0.58 8.34, 0.37 39.03, 0.21 46.7" stroke="#000000" stroke-width="1.5" fill="none" stroke-dasharray="8 9"></path></g></g><mask></mask><g stroke-linecap="round" transform="translate(776.8615977325518 52.486541626470455) rotate(0 70.220458984375 22.27655029296875)"><path d="M0 0 C57.19 -2.15, 112.1 -1.05, 140.44 0 M0 0 C43.11 -0.84, 87.56 -0.76, 140.44 0 M140.44 0 C139.55 11.55, 140.62 24.1, 140.44 44.55 M140.44 0 C141.26 9.84, 140.7 18.69, 140.44 44.55 M140.44 44.55 C100.74 45.36, 58.24 45.24, 0 44.55 M140.44 44.55 C111.99 46.06, 83.55 45.6, 0 44.55 M0 44.55 C0.99 27.39, 2.08 12.24, 0 0 M0 44.55 C-0.6 27.58, -0.21 8.56, 0 0" stroke="#000000" stroke-width="1" fill="none"></path></g><g transform="translate(787.9721018829424 62.263091919439205) rotate(0 59.109954833984375 12.5)"><text x="59.109954833984375" y="17.52" font-family="Virgil, Segoe UI Emoji" font-size="20px" fill="#1e1e1e" text-anchor="middle" style="white-space: pre;" direction="ltr" dominant-baseline="alphabetic">Thread (1..j)</text></g><g stroke-linecap="round"><g transform="translate(280.807447073199 142.19141003583604) rotate(0 272.8850284916073 -5.225832725299767)"><path d="M0.89 -1.19 C91.83 -2.74, 455.13 -8.31, 545.76 -9.86 M-0.11 0.79 C90.66 -1.06, 453.63 -10, 544.81 -11.68" stroke="#1e1e1e" stroke-width="2" fill="none"></path></g><g transform="translate(280.807447073199 142.19141003583604) rotate(0 272.8850284916073 -5.225832725299767)"><path d="M521.51 -2.61 C526.8 -5.62, 537.01 -10.31, 544.81 -11.68 M521.51 -2.61 C528.63 -5.11, 535.8 -8.7, 544.81 -11.68" stroke="#1e1e1e" stroke-width="2" fill="none"></path></g><g transform="translate(280.807447073199 142.19141003583604) rotate(0 272.8850284916073 -5.225832725299767)"><path d="M521.13 -19.71 C526.46 -17.41, 536.79 -16.78, 544.81 -11.68 M521.13 -19.71 C528.52 -17.19, 535.81 -15.76, 544.81 -11.68" stroke="#1e1e1e" stroke-width="2" fill="none"></path></g></g><mask></mask><g transform="translate(613.8749090734817 107.04603883818783) rotate(0 64.49113126808061 9.187076789009865)"><text x="0" y="12.876606827476234" font-family="Virgil, Segoe UI Emoji" font-size="14.699322862415793px" fill="#1e1e1e" text-anchor="start" style="white-space: pre;" direction="ltr" dominant-baseline="alphabetic">start(command)</text></g><g stroke-linecap="round"><g transform="translate(857.6598897368787 287.01013029526695) rotate(0 36.19280972063939 11.467782272364843)"><path d="M0.3 -1.02 C12.5 1.35, 73.14 11.41, 73.32 15.23 C73.49 19.05, 13.34 20.72, 1.33 21.9 M-1 1.06 C11.12 4.1, 72.51 12.85, 72.85 16.45 C73.2 20.05, 12.9 21.57, 1.1 22.67" stroke="#1e1e1e" stroke-width="2" fill="none"></path></g><g transform="translate(857.6598897368787 287.01013029526695) rotate(0 36.19280972063939 11.467782272364843)"><path d="M24.08 12.84 C15.37 17.48, 8.97 20.64, 1.1 22.67 M24.08 12.84 C20.01 15.75, 14.55 15.93, 1.1 22.67" stroke="#1e1e1e" stroke-width="2" fill="none"></path></g><g transform="translate(857.6598897368787 287.01013029526695) rotate(0 36.19280972063939 11.467782272364843)"><path d="M25.02 29.91 C15.88 29.29, 9.19 27.18, 1.1 22.67 M25.02 29.91 C20.62 29.17, 14.96 25.7, 1.1 22.67" stroke="#1e1e1e" stroke-width="2" fill="none"></path></g></g><mask></mask><g transform="translate(863.3904379112342 203.3517878222006) rotate(0 86.21280041111743 9.187076789009893)"><text x="0" y="12.876606827476234" font-family="Virgil, Segoe UI Emoji" font-size="14.699322862415793px" fill="#1e1e1e" text-anchor="start" style="white-space: pre;" direction="ltr" dominant-baseline="alphabetic">While msg != Quit</text></g><g transform="translate(942.5740976964896 293.16555164726725) rotate(0 123.78853603989995 9.187076789009893)"><text x="0" y="12.876606827476234" font-family="Virgil, Segoe UI Emoji" font-size="14.699322862415793px" fill="#1e1e1e" text-anchor="start" style="white-space: pre;" direction="ltr" dominant-baseline="alphabetic">build_command(command, msg)</text></g><g stroke-linecap="round" transform="translate(1221.3352061030382 122.64851679605579) rotate(0 7.8114013671875 200.22955719549978)"><path d="M0 0 C4.17 0.38, 8.76 -0.58, 15.62 0 M0 0 C4.76 -0.22, 9.29 -0.19, 15.62 0 M15.62 0 C15.68 104.35, 15.03 207.87, 15.62 400.46 M15.62 0 C15.16 155.96, 15.36 312.12, 15.62 400.46 M15.62 400.46 C11.31 400.25, 7.91 400.49, 0 400.46 M15.62 400.46 C10.18 400.77, 4.34 400.87, 0 400.46 M0 400.46 C-0.38 299.25, -0.69 198.88, 0 0 M0 400.46 C0.71 307.57, 0.65 214.76, 0 0" stroke="#000000" stroke-width="1" fill="none"></path></g><g stroke-linecap="round"><g transform="translate(1229.6245567578449 96.3639680364152) rotate(0 -0.9521484375 14.551055908203125)"><path d="M0.26 0.35 C-0.11 5.2, -1.91 24.39, -2.32 29.14" stroke="#000000" stroke-width="1.5" fill="none" stroke-dasharray="8 9"></path></g></g><mask></mask><g stroke-linecap="round"><g transform="translate(1225.7408347165542 525.9714759202025) rotate(0 0.23061280964225261 9.309495617879804)"><path d="M-0.42 0.04 C-0.43 3.05, 0.04 15.35, 0.18 18.39" stroke="#000000" stroke-width="1.5" fill="none" stroke-dasharray="8 9"></path></g></g><mask></mask><g stroke-linecap="round" transform="translate(1165.1598350781574 50.06265420799019) rotate(0 70.220458984375 22.27655029296875)"><path d="M0 0 C30.64 0.56, 61.67 -0.84, 140.44 0 M0 0 C33.6 1.11, 69.13 -0.04, 140.44 0 M140.44 0 C142.44 13.81, 140.08 28.64, 140.44 44.55 M140.44 0 C139.41 12.11, 139.92 25.39, 140.44 44.55 M140.44 44.55 C97.66 45.93, 54.66 44.44, 0 44.55 M140.44 44.55 C85.59 44.42, 28.24 43.86, 0 44.55 M0 44.55 C0.85 32.13, 0.09 18.89, 0 0 M0 44.55 C-0.87 30.28, -0.24 18.25, 0 0" stroke="#000000" stroke-width="1" fill="none"></path></g><g transform="translate(1190.9303352612628 59.83920450095894) rotate(0 44.44995880126953 12.5)"><text x="44.44995880126953" y="17.52" font-family="Virgil, Segoe UI Emoji" font-size="20px" fill="#1e1e1e" text-anchor="middle" style="white-space: pre;" direction="ltr" dominant-baseline="alphabetic">bash repl</text></g><g stroke-linecap="round"><g transform="translate(863.1844989018657 359.9071958665001) rotate(0 173.58644813980317 -1.0020923602502876)"><path d="M0.76 0.58 C58.5 0.22, 289.19 -1.64, 347.04 -1.89 M-0.3 -0.16 C57.22 -0.33, 288.06 0.13, 346.02 -0.29" stroke="#1e1e1e" stroke-width="2" fill="none"></path></g><g transform="translate(863.1844989018657 359.9071958665001) rotate(0 173.58644813980317 -1.0020923602502876)"><path d="M322.54 8.31 C331.69 4.94, 339.12 3.29, 346.02 -0.29 M322.54 8.31 C331.87 4.85, 340.12 1.42, 346.02 -0.29" stroke="#1e1e1e" stroke-width="2" fill="none"></path></g><g transform="translate(863.1844989018657 359.9071958665001) rotate(0 173.58644813980317 -1.0020923602502876)"><path d="M322.51 -8.79 C331.71 -6.19, 339.15 -1.87, 346.02 -0.29 M322.51 -8.79 C331.88 -5.56, 340.14 -2.31, 346.02 -0.29" stroke="#1e1e1e" stroke-width="2" fill="none"></path></g></g><mask></mask><g transform="translate(936.4041508270079 328.30269105670976) rotate(0 71.36480440567215 9.187076789009893)"><text x="0" y="12.876606827476234" font-family="Virgil, Segoe UI Emoji" font-size="14.699322862415793px" fill="#1e1e1e" text-anchor="start" style="white-space: pre;" direction="ltr" dominant-baseline="alphabetic">pipe_in(command)</text></g><g stroke-linecap="round"><g transform="translate(1208.2546016319493 406.8045323721944) rotate(0 -174.63561240269667 0.1255493081886243)"><path d="M0.71 0.79 C-57.16 0.85, -289.91 0.55, -348.35 0.64" stroke="#1e1e1e" stroke-width="2.5" fill="none" stroke-dasharray="8 10"></path></g><g transform="translate(1208.2546016319493 406.8045323721944) rotate(0 -174.63561240269667 0.1255493081886243)"><path d="M-324.86 -7.91 C-328.35 -4.48, -333.85 -5.33, -348.35 0.64" stroke="#1e1e1e" stroke-width="2.5" fill="none"></path></g><g transform="translate(1208.2546016319493 406.8045323721944) rotate(0 -174.63561240269667 0.1255493081886243)"><path d="M-324.86 9.19 C-328.39 9.11, -333.89 4.74, -348.35 0.64" stroke="#1e1e1e" stroke-width="2.5" fill="none"></path></g></g><mask></mask><g transform="translate(943.7576512266107 375.4909011813947) rotate(0 66.72165908098458 9.187076789009893)"><text x="0" y="12.876606827476234" font-family="Virgil, Segoe UI Emoji" font-size="14.699322862415793px" fill="#1e1e1e" text-anchor="start" style="white-space: pre;" direction="ltr" dominant-baseline="alphabetic">stdout, stderr</text></g><g stroke-linecap="round" transform="translate(254.02193454010546 110.58585304777472) rotate(0 7.8114013671875 306.73435916549505)"><path d="M0 0 C3.14 0.47, 7.91 -0.46, 15.62 0 M0 0 C4.21 -0.12, 8.8 -0.09, 15.62 0 M15.62 0 C16.95 198.12, 17.07 395.79, 15.62 613.47 M15.62 0 C15.16 149.76, 15 299.13, 15.62 613.47 M15.62 613.47 C11.17 613.98, 4.58 613.27, 0 613.47 M15.62 613.47 C10.93 613.22, 7.07 613.16, 0 613.47 M0 613.47 C0.02 485.38, 0.11 357.08, 0 0 M0 613.47 C0.37 394.01, 0.39 175.02, 0 0" stroke="#000000" stroke-width="1" fill="none"></path></g><g stroke-linecap="round"><g transform="translate(262.5324430553792 78.32457974575419) rotate(0 -0.9521484375 14.551055908203125)"><path d="M0.36 0.39 C-0.06 5.29, -1.87 24.22, -2.2 28.99" stroke="#000000" stroke-width="1.5" fill="none" stroke-dasharray="8 9"></path></g></g><mask></mask><g stroke-linecap="round"><g transform="translate(260.17666511929974 726.3025506984889) rotate(0 0.04765924155128687 23.104194651934165)"><path d="M-0.29 -0.12 C-0.29 7.5, 0.37 38.41, 0.4 46.1" stroke="#000000" stroke-width="1.5" fill="none" stroke-dasharray="8 9"></path></g></g><mask></mask><g stroke-linecap="round" transform="translate(197.08951399062732 32.771674561286375) rotate(0 70.220458984375 22.27655029296875)"><path d="M0 0 C34.3 -1.53, 68.68 -0.35, 140.44 0 M0 0 C38.01 -0.86, 77.58 -0.57, 140.44 0 M140.44 0 C140.63 15.19, 141.68 27.82, 140.44 44.55 M140.44 0 C141.53 12.37, 141.16 21.99, 140.44 44.55 M140.44 44.55 C103.62 42.27, 64.59 44.84, 0 44.55 M140.44 44.55 C110.18 44.29, 80.02 44.5, 0 44.55 M0 44.55 C-1.93 30.08, -1.78 17.22, 0 0 M0 44.55 C-0.02 27.18, -0.11 10.42, 0 0" stroke="#000000" stroke-width="1" fill="none"></path></g><g transform="translate(222.03001997207264 42.548224854255125) rotate(0 45.27995300292969 12.5)"><text x="45.27995300292969" y="17.52" font-family="Virgil, Segoe UI Emoji" font-size="20px" fill="#1e1e1e" text-anchor="middle" style="white-space: pre;" direction="ltr" dominant-baseline="alphabetic">Scheduler</text></g><g transform="translate(1218.4218392183843 535.6921882247841) rotate(0 5.6199951171875 12.5)"><text x="0" y="17.52" font-family="Virgil, Segoe UI Emoji" font-size="20px" fill="#1e1e1e" text-anchor="start" style="white-space: pre;" direction="ltr" dominant-baseline="alphabetic">x</text></g><g transform="translate(680.7150095593323 424.12425905719914) rotate(0 56.76166683411566 9.187076789009893)"><text x="0" y="12.876606827476234" font-family="Virgil, Segoe UI Emoji" font-size="14.699322862415793px" fill="#1e1e1e" text-anchor="start" style="white-space: pre;" direction="ltr" dominant-baseline="alphabetic">stdout, stderr</text></g><g stroke-linecap="round" transform="translate(530.312592259697 106.90435097051244) rotate(0 7.8114013671875 288.91812386341917)"><path d="M0 0 C3.89 0.66, 8.74 -0.77, 15.62 0 M0 0 C4.84 -0.08, 9.7 -0.31, 15.62 0 M15.62 0 C14.72 139.39, 14.95 279.72, 15.62 577.84 M15.62 0 C16.56 160.85, 16.46 321.76, 15.62 577.84 M15.62 577.84 C9.3 577.46, 4.91 578.4, 0 577.84 M15.62 577.84 C10.11 577.75, 4.44 578.12, 0 577.84 M0 577.84 C-0.67 442.88, -0.25 307.76, 0 0 M0 577.84 C-0.34 352.64, -0.57 127.6, 0 0" stroke="#000000" stroke-width="1" fill="none"></path></g><g stroke-linecap="round"><g transform="translate(538.9711959169323 76.32668559816409) rotate(0 -0.9521484375 14.551055908203125)"><path d="M0.47 0.02 C0.05 4.93, -2.13 24.29, -2.44 29.13" stroke="#000000" stroke-width="1.5" fill="none" stroke-dasharray="8 9"></path></g></g><mask></mask><g stroke-linecap="round"><g transform="translate(537.757309470191 687.8186902601772) rotate(0 0.04765924155128687 23.104194651934165)"><path d="M-0.54 0.03 C-0.51 7.72, 0.49 38.48, 0.62 46.16" stroke="#000000" stroke-width="1.5" fill="none" stroke-dasharray="8 9"></path></g></g><mask></mask><g stroke-linecap="round" transform="translate(473.37627446964086 30.20102450173033) rotate(0 70.220458984375 22.27655029296875)"><path d="M0 0 C28.22 -0.94, 56.39 -0.44, 140.44 0 M0 0 C30.33 0.19, 60.13 0.78, 140.44 0 M140.44 0 C139.65 14.79, 140.92 28.9, 140.44 44.55 M140.44 0 C141.17 16.41, 140.21 35.3, 140.44 44.55 M140.44 44.55 C87.63 44.71, 36.85 44.07, 0 44.55 M140.44 44.55 C86.12 44.8, 32.84 45.85, 0 44.55 M0 44.55 C-2.05 28.95, -1.31 10.48, 0 0 M0 44.55 C-0.8 32.65, 0.17 20.43, 0 0" stroke="#000000" stroke-width="1" fill="none"></path></g><g transform="translate(508.1067584784299 39.97757479469908) rotate(0 35.48997497558594 12.5)"><text x="35.48997497558594" y="17.52" font-family="Virgil, Segoe UI Emoji" font-size="20px" fill="#1e1e1e" text-anchor="middle" style="white-space: pre;" direction="ltr" dominant-baseline="alphabetic">Channel</text></g><g transform="translate(833.7517505262591 583.4669906031424) rotate(0 5.6199951171875 12.5)"><text x="0" y="17.52" font-family="Virgil, Segoe UI Emoji" font-size="20px" fill="#1e1e1e" text-anchor="start" style="white-space: pre;" direction="ltr" dominant-baseline="alphabetic">x</text></g><g stroke-linecap="round"><g transform="translate(280.09835383837793 240.63722017144852) rotate(0 120.2197681713291 -1.723448956371442)"><path d="M-0.08 -0.84 C40.08 -1.28, 201.56 -2.44, 241.54 -3.06 M-1.58 1.33 C38.47 0.55, 201.13 -4.12, 241.17 -4.98" stroke="#1e1e1e" stroke-width="2" fill="none"></path></g><g transform="translate(280.09835383837793 240.63722017144852) rotate(0 120.2197681713291 -1.723448956371442)"><path d="M217.91 4.17 C224.66 2.83, 234.83 -3.27, 241.17 -4.98 M217.91 4.17 C222.47 2.3, 227.24 -0.27, 241.17 -4.98" stroke="#1e1e1e" stroke-width="2" fill="none"></path></g><g transform="translate(280.09835383837793 240.63722017144852) rotate(0 120.2197681713291 -1.723448956371442)"><path d="M217.47 -12.93 C224.32 -8.3, 234.64 -8.43, 241.17 -4.98 M217.47 -12.93 C222.24 -11.21, 227.1 -10.21, 241.17 -4.98" stroke="#1e1e1e" stroke-width="2" fill="none"></path></g></g><mask></mask><g transform="translate(323.61912785510896 198.5095267552017) rotate(0 81.77929047184486 9.187076789009865)"><text x="0" y="12.876606827476234" font-family="Virgil, Segoe UI Emoji" font-size="14.699322862415793px" fill="#1e1e1e" text-anchor="start" style="white-space: pre;" direction="ltr" dominant-baseline="alphabetic">send(Job(idx, line))</text></g><g stroke-linecap="round"><g transform="translate(825.9457518524259 235.86848651533336) rotate(0 -134.62707393879987 1.828865557129518)"><path d="M-0.47 0.17 C-45.51 0.93, -224.46 3.69, -269.15 4.11 M1.49 -0.78 C-43.81 -0.35, -224.96 1.51, -270.04 2.22" stroke="#1e1e1e" stroke-width="2" fill="none"></path></g><g transform="translate(825.9457518524259 235.86848651533336) rotate(0 -134.62707393879987 1.828865557129518)"><path d="M-246.66 -6.63 C-255.64 -3.05, -264.43 1.37, -270.04 2.22 M-246.66 -6.63 C-251.53 -4.16, -257.27 -2.61, -270.04 2.22" stroke="#1e1e1e" stroke-width="2" fill="none"></path></g><g transform="translate(825.9457518524259 235.86848651533336) rotate(0 -134.62707393879987 1.828865557129518)"><path d="M-246.45 10.47 C-255.45 7.29, -264.32 4.95, -270.04 2.22 M-246.45 10.47 C-251.51 9.19, -257.3 6.99, -270.04 2.22" stroke="#1e1e1e" stroke-width="2" fill="none"></path></g></g><mask></mask><g transform="translate(684.6439060336264 211.87706193755315) rotate(0 64.49113126808061 9.187076789009893)"><text x="0" y="12.876606827476234" font-family="Virgil, Segoe UI Emoji" font-size="14.699322862415793px" fill="#1e1e1e" text-anchor="start" style="white-space: pre;" direction="ltr" dominant-baseline="alphabetic">Receive</text></g><g transform="translate(942.6865674912236 10) rotate(0 103.53317044694495 39.66967869326703)"><text x="0" y="13.900255414120767" font-family="Virgil, Segoe UI Emoji" font-size="15.867871477306812px" fill="#1e1e1e" text-anchor="start" style="white-space: pre;" direction="ltr" dominant-baseline="alphabetic">pub enum Message {</text><text x="0" y="33.73509476075428" font-family="Virgil, Segoe UI Emoji" font-size="15.867871477306812px" fill="#1e1e1e" text-anchor="start" style="white-space: pre;" direction="ltr" dominant-baseline="alphabetic">    Job((usize, String)),</text><text x="0" y="53.569934107387795" font-family="Virgil, Segoe UI Emoji" font-size="15.867871477306812px" fill="#1e1e1e" text-anchor="start" style="white-space: pre;" direction="ltr" dominant-baseline="alphabetic">    Quit,</text><text x="0" y="73.40477345402131" font-family="Virgil, Segoe UI Emoji" font-size="15.867871477306812px" fill="#1e1e1e" text-anchor="start" style="white-space: pre;" direction="ltr" dominant-baseline="alphabetic">}</text></g><g stroke-linecap="round"><g transform="translate(556.6833473739513 279.9460676985146) rotate(0 132.111035812985 -2.0174293289413754)"><path d="M-0.15 -0.87 C43.81 -1.67, 220.32 -4.12, 264.22 -4.49" stroke="#1e1e1e" stroke-width="2.5" fill="none" stroke-dasharray="8 10"></path></g><g transform="translate(556.6833473739513 279.9460676985146) rotate(0 132.111035812985 -2.0174293289413754)"><path d="M240.83 4.33 C247.3 1.37, 255.95 -3.27, 264.22 -4.49" stroke="#1e1e1e" stroke-width="2.5" fill="none"></path></g><g transform="translate(556.6833473739513 279.9460676985146) rotate(0 132.111035812985 -2.0174293289413754)"><path d="M240.63 -12.77 C247.21 -9.92, 255.93 -8.75, 264.22 -4.49" stroke="#1e1e1e" stroke-width="2.5" fill="none"></path></g></g><mask></mask><g transform="translate(675.6062051333715 252.6733763074821) rotate(0 64.49113126808061 9.187076789009893)"><text x="0" y="12.876606827476234" font-family="Virgil, Segoe UI Emoji" font-size="14.699322862415793px" fill="#1e1e1e" text-anchor="start" style="white-space: pre;" direction="ltr" dominant-baseline="alphabetic">msg: Message</text></g><g stroke-linecap="round"><g transform="translate(821.6530681250828 445.92097766841795) rotate(0 -368.9773045459559 2.968248724130433)"><path d="M0.94 1.15 C-122.07 2.11, -615.01 4.86, -738.01 5.7" stroke="#1e1e1e" stroke-width="2.5" fill="none" stroke-dasharray="8 10"></path></g><g transform="translate(821.6530681250828 445.92097766841795) rotate(0 -368.9773045459559 2.968248724130433)"><path d="M-714.58 -2.99 C-719.79 -0.27, -729.2 3.97, -738.01 5.7" stroke="#1e1e1e" stroke-width="2.5" fill="none"></path></g><g transform="translate(821.6530681250828 445.92097766841795) rotate(0 -368.9773045459559 2.968248724130433)"><path d="M-714.47 14.11 C-719.7 11.64, -729.15 10.69, -738.01 5.7" stroke="#1e1e1e" stroke-width="2.5" fill="none"></path></g></g><mask></mask><g stroke-linecap="round" transform="translate(66.93631779005614 107.69044775969093) rotate(0 7.8114013671875 220.8255364855633)"><path d="M0 0 C2.91 -0.07, 8.01 0.24, 15.62 0 M0 0 C4.92 0.22, 9.84 -0.13, 15.62 0 M15.62 0 C15.83 158.09, 16.24 315.73, 15.62 441.65 M15.62 0 C16.07 103.56, 16.1 206.75, 15.62 441.65 M15.62 441.65 C12.89 442.09, 9.64 441.56, 0 441.65 M15.62 441.65 C11.04 442, 6.9 441.83, 0 441.65 M0 441.65 C-0.08 318.51, 0.58 195.35, 0 0 M0 441.65 C-0.24 331.71, -0.42 221.49, 0 0" stroke="#000000" stroke-width="1" fill="none"></path></g><g stroke-linecap="round"><g transform="translate(75.59492144729143 77.11278238734263) rotate(0 -0.9521484375 14.551055908203125)"><path d="M-0.01 0.46 C-0.36 5.4, -1.37 24.39, -1.69 29.14" stroke="#000000" stroke-width="1.5" fill="none" stroke-dasharray="8 9"></path></g></g><mask></mask><g stroke-linecap="round"><g transform="translate(72.81434428821626 547.0102423714561) rotate(0 0.04765924155128687 23.104194651934108)"><path d="M0.21 0.04 C0.22 7.64, 0.06 38.3, 0.07 46.04" stroke="#000000" stroke-width="1.5" fill="none" stroke-dasharray="8 9"></path></g></g><mask></mask><g stroke-linecap="round" transform="translate(10 16.259449146854593) rotate(0 70.22045898437499 30)"><path d="M0 0 C46.9 0.7, 96 1.38, 140.44 0 M0 0 C36.79 -0.32, 73.75 0.52, 140.44 0 M140.44 0 C141.25 14.58, 141.1 30.59, 140.44 60 M140.44 0 C139.47 16.3, 140.47 31.94, 140.44 60 M140.44 60 C101.21 59.45, 59.83 61.48, 0 60 M140.44 60 C93.92 59.25, 48.38 60.58, 0 60 M0 60 C2.04 42.02, 1.37 21.16, 0 0 M0 60 C-0.02 42.01, 0.77 25.21, 0 0" stroke="#000000" stroke-width="1" fill="none"></path></g><g transform="translate(40.9304962158203 21.259449146854593) rotate(0 39.28996276855469 25)"><text x="39.28996276855469" y="17.52" font-family="Virgil, Segoe UI Emoji" font-size="20px" fill="#1e1e1e" text-anchor="middle" style="white-space: pre;" direction="ltr" dominant-baseline="alphabetic">Stdout </text><text x="39.28996276855469" y="42.519999999999996" font-family="Virgil, Segoe UI Emoji" font-size="20px" fill="#1e1e1e" text-anchor="middle" style="white-space: pre;" direction="ltr" dominant-baseline="alphabetic">channel</text></g><g stroke-linecap="round" transform="translate(116.54663841140064 159.60465481236963) rotate(0 236.1688817828918 211.02583419427927)"><path d="M32 0 C193.35 0.32, 353.55 -0.43, 440.34 0 M32 0 C171.4 -1.37, 310.49 -1.94, 440.34 0 M440.34 0 C460.12 -1.76, 474.14 11.18, 472.34 32 M440.34 0 C462.82 -0.33, 471.31 11.68, 472.34 32 M472.34 32 C473.1 151.31, 475.24 270.85, 472.34 390.05 M472.34 32 C471.76 163.7, 472.48 295.16, 472.34 390.05 M472.34 390.05 C472.16 411.98, 460.57 422.96, 440.34 422.05 M472.34 390.05 C470.14 413.34, 459.42 424.05, 440.34 422.05 M440.34 422.05 C342.15 421.79, 244.97 420.81, 32 422.05 M440.34 422.05 C320.23 422.36, 200 422.59, 32 422.05 M32 422.05 C9.82 420.75, -1.22 413.25, 0 390.05 M32 422.05 C11.34 422.49, -2.19 411.87, 0 390.05 M0 390.05 C-1.05 279.4, -0.5 170.29, 0 32 M0 390.05 C0.11 306.34, 0.42 223.62, 0 32 M0 32 C1.74 9.25, 9.11 0.77, 32 0 M0 32 C-0.46 11.89, 11.71 0.84, 32 0" stroke="#1e1e1e" stroke-width="2" fill="none"></path></g><g transform="translate(289.8105658414354 169.01521006131372) rotate(0 91.94913975999242 8.110704743248874)"><text x="0" y="11.367963768137635" font-family="Virgil, Segoe UI Emoji" font-size="12.977127589198213px" fill="#1e1e1e" text-anchor="start" style="white-space: pre;" direction="ltr" dominant-baseline="alphabetic">while let line = stdin.next()</text></g><g stroke-linecap="round"><g transform="translate(277.49806605369105 550.4631134666672) rotate(0 36.19280972063939 11.611714154464039)"><path d="M-1.13 -0.54 C10.91 1.61, 71.62 9.64, 71.98 13.79 C72.34 17.94, 12.86 22.74, 1.03 24.34 M0.48 1.79 C12.35 4.06, 70.8 11.87, 70.82 15.33 C70.85 18.8, 12.17 21.04, 0.63 22.59" stroke="#1e1e1e" stroke-width="2" fill="none"></path></g><g transform="translate(277.49806605369105 550.4631134666672) rotate(0 36.19280972063939 11.611714154464039)"><path d="M23.38 12.22 C16.21 14.23, 10.79 18.95, 0.63 22.59 M23.38 12.22 C14.15 16.83, 5.52 21.05, 0.63 22.59" stroke="#1e1e1e" stroke-width="2" fill="none"></path></g><g transform="translate(277.49806605369105 550.4631134666672) rotate(0 36.19280972063939 11.611714154464039)"><path d="M24.72 29.27 C17.05 26.51, 11.25 26.48, 0.63 22.59 M24.72 29.27 C14.87 27.17, 5.71 24.69, 0.63 22.59" stroke="#1e1e1e" stroke-width="2" fill="none"></path></g></g><mask></mask><g stroke-linecap="round"><g transform="translate(245.14095799705473 489.1755311893067) rotate(0 -80.3696906126489 -0.569655431991805)"><path d="M0.28 -0.12 C-26.62 -0.51, -134.09 -1.67, -161.13 -1.94 M-1.03 -1.23 C-28.15 -1.53, -135.84 -0.91, -162.28 -0.83" stroke="#1e1e1e" stroke-width="2" fill="none"></path></g><g transform="translate(245.14095799705473 489.1755311893067) rotate(0 -80.3696906126489 -0.569655431991805)"><path d="M-138.82 -9.48 C-146.64 -7.25, -155.41 -5.76, -162.28 -0.83 M-138.82 -9.48 C-143.97 -6.88, -151.22 -4.44, -162.28 -0.83" stroke="#1e1e1e" stroke-width="2" fill="none"></path></g><g transform="translate(245.14095799705473 489.1755311893067) rotate(0 -80.3696906126489 -0.569655431991805)"><path d="M-138.75 7.62 C-146.65 4.28, -155.45 0.2, -162.28 -0.83 M-138.75 7.62 C-143.89 5.96, -151.16 4.14, -162.28 -0.83" stroke="#1e1e1e" stroke-width="2" fill="none"></path></g></g><mask></mask><g transform="translate(148.03771757273012 463.45330726358117) rotate(0 64.49113126808061 9.187076789009893)"><text x="0" y="12.876606827476234" font-family="Virgil, Segoe UI Emoji" font-size="14.699322862415793px" fill="#1e1e1e" text-anchor="start" style="white-space: pre;" direction="ltr" dominant-baseline="alphabetic">Receive</text></g><g stroke-linecap="round"><g transform="translate(83.55912052443114 536.4801569144754) rotate(0 82.06898621417935 1.835144903676337)"><path d="M0.2 -0.37 C27.54 0.22, 136.74 2.32, 164.11 3.12" stroke="#1e1e1e" stroke-width="2.5" fill="none" stroke-dasharray="8 10"></path></g><g transform="translate(83.55912052443114 536.4801569144754) rotate(0 82.06898621417935 1.835144903676337)"><path d="M140.42 11.12 C147.14 8.56, 154.15 6.65, 164.11 3.12" stroke="#1e1e1e" stroke-width="2.5" fill="none"></path></g><g transform="translate(83.55912052443114 536.4801569144754) rotate(0 82.06898621417935 1.835144903676337)"><path d="M140.82 -5.98 C147.37 -3.26, 154.25 0.1, 164.11 3.12" stroke="#1e1e1e" stroke-width="2.5" fill="none"></path></g></g><mask></mask><g transform="translate(128.2660466450364 511.07991282812833) rotate(0 64.49113126808062 9.187076789009893)"><text x="0" y="12.876606827476234" font-family="Virgil, Segoe UI Emoji" font-size="14.699322862415793px" fill="#1e1e1e" text-anchor="start" style="white-space: pre;" direction="ltr" dominant-baseline="alphabetic">stdout, stderr</text></g><g stroke-linecap="round"><g transform="translate(276.01098800619224 634.3054543848107) rotate(0 122.64190319052207 0.30543898877039055)"><path d="M0.97 -0.86 C41.69 -0.79, 204.22 0.98, 244.99 1.16 M0.02 1.31 C40.49 0.95, 203.06 -0.68, 243.88 -0.68" stroke="#1e1e1e" stroke-width="2" fill="none"></path></g><g transform="translate(276.01098800619224 634.3054543848107) rotate(0 122.64190319052207 0.30543898877039055)"><path d="M220.44 8.01 C227.31 4.23, 238.01 2.11, 243.88 -0.68 M220.44 8.01 C225.98 6.21, 233.27 4.26, 243.88 -0.68" stroke="#1e1e1e" stroke-width="2" fill="none"></path></g><g transform="translate(276.01098800619224 634.3054543848107) rotate(0 122.64190319052207 0.30543898877039055)"><path d="M220.34 -9.09 C227.36 -6.78, 238.08 -2.8, 243.88 -0.68 M220.34 -9.09 C225.81 -6.34, 233.12 -3.73, 243.88 -0.68" stroke="#1e1e1e" stroke-width="2" fill="none"></path></g></g><mask></mask><g transform="translate(311.8962281966511 608.8343982447243) rotate(0 64.49113126808061 9.187076789009893)"><text x="0" y="12.876606827476234" font-family="Virgil, Segoe UI Emoji" font-size="14.699322862415793px" fill="#1e1e1e" text-anchor="start" style="white-space: pre;" direction="ltr" dominant-baseline="alphabetic">Send(Quit)</text></g><g stroke-linecap="round" transform="translate(114.40705333411 591.5631087500651) rotate(0 242.9364400464933 43.29444558039154)"><path d="M21.65 0 C136.53 0.77, 253.71 0.76, 464.23 0 M21.65 0 C142.32 -0.33, 262.85 -0.26, 464.23 0 M464.23 0 C478.31 0.32, 483.91 7.99, 485.87 21.65 M464.23 0 C479.79 0.53, 486.25 6.11, 485.87 21.65 M485.87 21.65 C486.57 34.53, 485.18 49.36, 485.87 64.94 M485.87 21.65 C485.91 34.96, 486.18 50.77, 485.87 64.94 M485.87 64.94 C487.52 77.85, 477.02 87.81, 464.23 86.59 M485.87 64.94 C484.91 80.07, 480.06 84.61, 464.23 86.59 M464.23 86.59 C323.73 84.66, 183.79 84.92, 21.65 86.59 M464.23 86.59 C320.78 85.17, 177.29 85.79, 21.65 86.59 M21.65 86.59 C7.36 85.54, -1.89 78.45, 0 64.94 M21.65 86.59 C5.74 85.83, -0.25 80.55, 0 64.94 M0 64.94 C-0.4 47.34, -0.12 30.1, 0 21.65 M0 64.94 C-0.05 49.06, -0.83 33.89, 0 21.65 M0 21.65 C0.14 7.43, 6.92 -1.58, 21.65 0 M0 21.65 C2.24 5.94, 5.6 -2.01, 21.65 0" stroke="#1e1e1e" stroke-width="2" fill="none"></path></g><g transform="translate(142.2240137749465 597.3889363135479) rotate(0 26.995779667671343 8.110704743248903)"><text x="0" y="11.367963768137635" font-family="Virgil, Segoe UI Emoji" font-size="12.977127589198213px" fill="#1e1e1e" text-anchor="start" style="white-space: pre;" direction="ltr" dominant-baseline="alphabetic">for 1..j</text></g><g transform="translate(366.20037840973714 552.2854374587419) rotate(0 64.49113126808061 9.187076789009893)"><text x="0" y="12.876606827476234" font-family="Virgil, Segoe UI Emoji" font-size="14.699322862415793px" fill="#1e1e1e" text-anchor="start" style="white-space: pre;" direction="ltr" dominant-baseline="alphabetic">println(stdout)</text></g><g stroke-linecap="round"><g transform="translate(277.7933632085246 699.544073541864) rotate(0 36.19280972063939 11.611714154464039)"><path d="M-0.27 1.19 C11.96 3.77, 73.09 11.11, 73.15 14.59 C73.2 18.08, 12.2 20.48, 0.05 22.1 M1.78 0.77 C13.95 3.09, 73.04 9.23, 72.6 12.9 C72.16 16.58, 11.16 21.26, -0.86 22.83" stroke="#1e1e1e" stroke-width="2" fill="none"></path></g><g transform="translate(277.7933632085246 699.544073541864) rotate(0 36.19280972063939 11.611714154464039)"><path d="M21.65 11.95 C17.29 16.2, 10.41 17.49, -0.86 22.83 M21.65 11.95 C16.2 14, 12.15 17.43, -0.86 22.83" stroke="#1e1e1e" stroke-width="2" fill="none"></path></g><g transform="translate(277.7933632085246 699.544073541864) rotate(0 36.19280972063939 11.611714154464039)"><path d="M23.38 28.96 C18.66 28.47, 11.3 25.03, -0.86 22.83 M23.38 28.96 C17.58 27.51, 13.18 27.43, -0.86 22.83" stroke="#1e1e1e" stroke-width="2" fill="none"></path></g></g><mask></mask><g transform="translate(366.4956755645708 701.3663975339387) rotate(0 64.49113126808061 18.37415357801973)"><text x="0" y="12.876606827476234" font-family="Virgil, Segoe UI Emoji" font-size="14.699322862415793px" fill="#1e1e1e" text-anchor="start" style="white-space: pre;" direction="ltr" dominant-baseline="alphabetic">print the rest of</text><text x="0" y="31.250760405495974" font-family="Virgil, Segoe UI Emoji" font-size="14.699322862415793px" fill="#1e1e1e" text-anchor="start" style="white-space: pre;" direction="ltr" dominant-baseline="alphabetic">stdout</text></g><g transform="translate(936.8226521107166 118.81095693622592) rotate(0 97.15975041270497 9.187076789009865)"><text x="0" y="12.876606827476234" font-family="Virgil, Segoe UI Emoji" font-size="14.699322862415793px" fill="#1e1e1e" text-anchor="start" style="white-space: pre;" direction="ltr" dominant-baseline="alphabetic">start_repl(rand_string)</text></g><g stroke-linecap="round"><g transform="translate(856.7777789315622 149.77390478575091) rotate(0 177.04738165863478 -1.0115956147974146)"><path d="M0.33 -0.55 C59.25 -0.8, 295.54 -1.85, 354.48 -2.2 M-0.96 1.77 C57.75 1.78, 294.72 -0.19, 353.74 -0.76" stroke="#1e1e1e" stroke-width="2" fill="none"></path></g><g transform="translate(856.7777789315622 149.77390478575091) rotate(0 177.04738165863478 -1.0115956147974146)"><path d="M330.32 8 C338.35 5.25, 347.87 1.1, 353.74 -0.76 M330.32 8 C336.04 5.09, 342.47 4.44, 353.74 -0.76" stroke="#1e1e1e" stroke-width="2" fill="none"></path></g><g transform="translate(856.7777789315622 149.77390478575091) rotate(0 177.04738165863478 -1.0115956147974146)"><path d="M330.17 -9.1 C338.16 -5.35, 347.73 -3.01, 353.74 -0.76 M330.17 -9.1 C336.03 -7.77, 342.49 -4.18, 353.74 -0.76" stroke="#1e1e1e" stroke-width="2" fill="none"></path></g></g><mask></mask><g stroke-linecap="round"><g transform="translate(861.1145126719697 513.0904657433623) rotate(0 175.4902501621293 -1.302179884751979)"><path d="M-0.74 -0.2 C57.81 -0.55, 293.26 -1.44, 352.03 -1.87 M1.07 -1.36 C59.5 -2.07, 293.22 -3.58, 351.63 -3.6" stroke="#1e1e1e" stroke-width="2" fill="none"></path></g><g transform="translate(861.1145126719697 513.0904657433623) rotate(0 175.4902501621293 -1.302179884751979)"><path d="M328.17 5.04 C336.18 3.85, 346.12 0.46, 351.63 -3.6 M328.17 5.04 C335.11 2.99, 341.62 -0.7, 351.63 -3.6" stroke="#1e1e1e" stroke-width="2" fill="none"></path></g><g transform="translate(861.1145126719697 513.0904657433623) rotate(0 175.4902501621293 -1.302179884751979)"><path d="M328.1 -12.06 C336.17 -7.15, 346.13 -4.44, 351.63 -3.6 M328.1 -12.06 C335.08 -9.18, 341.61 -7.95, 351.63 -3.6" stroke="#1e1e1e" stroke-width="2" fill="none"></path></g></g><mask></mask><g transform="translate(968.0226539754251 485.18664642826155) rotate(0 64.77498741230107 9.187076789009893)"><text x="0" y="12.876606827476234" font-family="Virgil, Segoe UI Emoji" font-size="14.699322862415793px" fill="#1e1e1e" text-anchor="start" style="white-space: pre;" direction="ltr" dominant-baseline="alphabetic">pipe_in("exit\n")</text></g></svg>